<svg id="svg" version="1.1" xmlns="http://www.w3.org/2000/svg" xmlns:xlink="http://www.w3.org/1999/xlink" width="400" height="224.80620155038758" viewBox="0, 0, 400,224.80620155038758"><g id="svgg"><path id="path0" d="M122.541 90.725 L 122.541 133.783 199.213 133.783 L 275.885 133.783 275.885 90.725 L 275.885 47.667 199.213 47.667 L 122.541 47.667 122.541 90.725 M174.648 66.821 C 177.664 68.233,178.569 72.155,176.497 74.830 C 176.239 75.163,172.600 78.876,168.410 83.080 L 160.791 90.725 168.724 98.741 C 173.505 103.573,176.821 107.101,177.072 107.622 C 179.248 112.157,174.517 117.009,170.083 114.789 C 169.090 114.291,146.253 91.569,145.953 90.779 C 145.865 90.547,168.259 68.004,169.407 67.169 C 170.888 66.091,172.815 65.964,174.648 66.821 M210.367 66.667 C 213.130 67.803,214.175 71.323,212.704 74.536 C 212.333 75.346,212.029 76.050,212.029 76.100 C 212.029 76.150,211.735 76.831,211.376 77.612 C 211.017 78.394,210.451 79.691,210.117 80.495 C 209.783 81.298,209.257 82.513,208.947 83.193 C 208.637 83.873,208.185 84.935,207.942 85.554 C 207.551 86.550,207.083 87.626,205.464 91.253 C 205.224 91.791,204.267 94.017,203.337 96.200 C 202.407 98.383,201.402 100.703,201.104 101.356 C 200.806 102.009,200.562 102.588,200.562 102.642 C 200.562 102.697,200.314 103.276,200.010 103.929 C 199.706 104.581,198.700 106.874,197.773 109.023 C 195.586 114.097,194.663 115.051,191.716 115.287 C 187.711 115.609,184.641 110.616,186.844 107.364 C 186.927 107.240,187.133 106.785,187.301 106.352 C 187.468 105.919,187.941 104.831,188.350 103.934 C 188.760 103.037,189.095 102.255,189.095 102.197 C 189.095 102.140,189.348 101.533,189.657 100.849 C 189.966 100.166,190.472 99.047,190.781 98.364 C 191.091 97.680,191.343 97.072,191.343 97.012 C 191.343 96.907,191.686 96.118,192.831 93.586 C 193.126 92.933,193.367 92.352,193.367 92.294 C 193.367 92.236,193.721 91.422,194.154 90.485 C 194.587 89.548,194.941 88.741,194.941 88.692 C 194.941 88.643,195.184 88.068,195.480 87.415 C 195.777 86.762,196.292 85.571,196.626 84.767 C 196.959 83.963,197.368 83.002,197.535 82.631 C 197.701 82.260,198.313 80.843,198.895 79.483 C 200.947 74.681,201.430 73.564,201.971 72.370 C 202.271 71.706,202.706 70.658,202.938 70.039 C 204.085 66.980,207.433 65.460,210.367 66.667 M229.907 66.796 C 230.907 67.263,253.963 90.169,253.963 90.695 C 253.963 91.305,231.141 114.181,229.931 114.784 C 226.518 116.485,222.372 113.922,222.372 110.111 C 222.372 107.741,222.281 107.854,232.661 97.381 L 239.240 90.743 231.292 82.752 C 225.244 76.671,223.229 74.506,222.859 73.696 C 220.826 69.244,225.452 64.716,229.907 66.796 M218.686 165.392 C 218.611 165.588,218.550 167.650,218.550 169.974 C 218.550 175.094,218.896 174.675,214.599 174.755 L 211.242 174.817 211.179 177.678 C 211.105 181.075,210.686 180.753,215.289 180.833 L 218.437 180.888 218.550 190.894 L 218.662 200.899 222.201 200.961 L 225.740 201.023 225.799 190.843 L 225.857 180.663 229.399 180.601 L 232.940 180.539 232.940 177.515 L 232.940 174.491 229.399 174.430 L 225.857 174.368 225.745 169.983 C 225.683 167.572,225.551 165.472,225.450 165.318 C 225.151 164.855,218.866 164.924,218.686 165.392 M43.620 183.137 L 43.620 201.012 56.666 201.012 L 69.712 201.012 69.651 196.684 L 69.590 192.355 61.127 192.296 L 52.665 192.237 52.530 191.734 C 52.456 191.457,52.394 185.449,52.392 178.383 C 52.389 166.876,52.352 165.520,52.033 165.398 C 51.838 165.323,49.865 165.261,47.649 165.261 L 43.620 165.261 43.620 183.137 M206.071 165.496 C 201.629 165.925,198.736 167.506,197.840 169.993 C 196.993 172.347,196.965 172.899,196.965 187.080 L 196.965 201.023 200.506 200.961 L 204.047 200.899 204.107 195.334 L 204.167 189.770 206.506 189.770 C 209.787 189.770,209.556 190.008,209.556 186.622 C 209.556 183.235,209.788 183.474,206.502 183.474 L 204.160 183.474 204.160 178.898 C 204.160 172.943,204.537 172.284,208.154 171.913 C 208.932 171.833,209.872 171.707,210.243 171.633 L 210.917 171.498 210.855 168.436 L 210.793 165.374 209.331 165.348 C 208.527 165.334,207.060 165.400,206.071 165.496 M85.309 174.578 C 80.114 175.448,75.963 179.009,74.286 184.036 C 73.541 186.271,73.924 191.736,74.901 192.794 C 75.010 192.911,75.098 193.189,75.098 193.412 C 75.098 193.635,75.200 193.817,75.323 193.817 C 75.447 193.817,75.548 193.944,75.548 194.099 C 75.548 194.563,77.681 197.016,78.869 197.918 C 82.796 200.901,87.673 201.722,92.187 200.160 C 92.743 199.968,93.333 199.708,93.497 199.582 C 93.859 199.306,94.202 199.752,94.207 200.506 C 94.210 201.009,94.232 201.012,97.695 201.012 L 101.180 201.012 101.180 187.858 L 101.180 174.705 97.710 174.705 C 94.438 174.705,94.232 174.730,94.098 175.155 C 93.926 175.697,93.564 175.718,92.460 175.248 C 91.739 174.941,87.776 174.230,87.128 174.291 C 87.004 174.302,86.186 174.432,85.309 174.578 M116.920 174.577 C 115.295 174.835,113.687 175.294,113.202 175.638 C 112.881 175.866,112.492 175.581,112.390 175.042 C 112.310 174.619,112.101 174.589,108.879 174.530 L 105.453 174.468 105.453 187.746 L 105.453 201.023 108.994 200.961 L 112.535 200.899 112.648 193.125 L 112.760 185.351 113.377 184.419 C 116.456 179.769,122.945 180.207,125.160 185.213 C 125.679 186.388,125.689 186.541,125.689 193.566 L 125.689 200.722 127.206 200.865 C 128.041 200.944,129.667 201.009,130.819 201.010 L 132.914 201.012 132.840 192.861 C 132.782 186.537,132.696 184.559,132.455 184.036 C 130.881 180.609,130.815 180.508,128.949 178.629 C 126.342 176.005,124.245 174.956,120.670 174.486 C 119.702 174.359,118.842 174.267,118.758 174.282 C 118.675 174.297,117.847 174.429,116.920 174.577 M288.926 174.592 C 275.320 176.940,273.239 194.981,286.003 199.935 C 289.582 201.324,295.136 201.157,297.187 199.599 C 297.476 199.379,297.600 199.569,297.741 200.450 C 297.809 200.874,298.012 200.903,301.352 200.961 L 304.890 201.023 304.890 187.864 L 304.890 174.705 301.384 174.705 C 298.067 174.705,297.872 174.729,297.760 175.155 C 297.618 175.699,297.368 175.712,296.093 175.240 C 295.242 174.924,291.485 174.243,290.838 174.286 C 290.714 174.294,289.854 174.432,288.926 174.592 M318.494 174.622 C 317.999 174.795,317.367 175.052,317.090 175.195 C 316.682 175.404,316.507 175.381,316.167 175.073 C 315.804 174.745,315.284 174.701,312.398 174.755 L 309.050 174.817 309.050 187.858 L 309.050 200.899 312.535 200.899 L 316.020 200.899 316.133 193.142 L 316.245 185.385 316.882 184.301 C 318.242 181.987,319.987 180.942,322.709 180.812 L 324.452 180.728 324.452 177.492 L 324.452 174.255 321.922 174.281 C 320.403 174.297,319.034 174.433,318.494 174.622 M146.015 174.688 C 139.977 175.657,136.303 179.504,137.364 183.750 C 138.089 186.650,140.420 188.529,145.250 190.106 C 146.301 190.449,147.364 190.802,147.611 190.889 C 147.858 190.977,148.971 191.337,150.084 191.689 C 153.666 192.823,154.214 193.787,151.771 194.655 C 149.114 195.598,145.142 194.221,144.983 192.300 L 144.913 191.456 140.889 191.394 L 136.865 191.333 136.998 192.968 C 137.351 197.310,140.422 199.777,146.599 200.684 C 150.410 201.243,155.876 200.693,157.043 199.632 C 157.161 199.525,157.393 199.438,157.560 199.438 C 158.187 199.438,160.294 197.862,160.917 196.926 C 164.037 192.243,160.651 187.016,153.232 185.058 C 145.767 183.089,143.616 180.632,149.400 180.680 C 152.257 180.705,153.569 181.509,153.569 183.234 L 153.569 183.924 157.617 183.924 L 161.664 183.924 161.664 182.572 C 161.664 177.254,154.022 173.405,146.015 174.688 M174.953 175.299 C 162.603 179.443,162.737 195.978,175.155 200.239 C 177.258 200.961,181.989 200.838,184.036 200.008 C 194.602 195.725,196.001 182.678,186.542 176.627 C 185.856 176.188,185.187 175.829,185.056 175.829 C 184.924 175.829,184.641 175.731,184.426 175.611 C 182.467 174.519,177.743 174.363,174.953 175.299 M237.292 175.436 C 237.369 175.838,237.593 176.723,237.790 177.403 C 237.988 178.083,238.233 178.943,238.336 179.314 C 238.438 179.685,238.790 180.950,239.120 182.125 C 239.449 183.300,239.805 184.615,239.911 185.048 C 240.103 185.825,240.215 186.222,240.932 188.645 C 241.133 189.325,241.381 190.185,241.483 190.556 C 241.844 191.866,242.864 195.513,243.087 196.290 C 243.211 196.723,243.399 197.431,243.504 197.864 C 243.609 198.297,243.830 199.157,243.995 199.775 L 244.295 200.899 248.002 200.899 L 251.709 200.899 253.252 196.178 C 254.100 193.581,254.872 191.254,254.967 191.006 C 255.061 190.759,255.341 189.949,255.587 189.207 C 256.299 187.064,256.511 187.277,257.885 191.508 C 258.557 193.582,259.169 195.379,259.243 195.503 C 259.317 195.627,259.667 196.639,260.020 197.752 C 260.374 198.865,260.774 200.053,260.909 200.393 L 261.155 201.012 264.703 201.012 C 268.693 201.012,268.337 201.175,268.878 199.101 C 269.007 198.606,269.377 197.291,269.699 196.178 C 270.021 195.065,270.378 193.800,270.493 193.367 C 270.607 192.934,270.958 191.669,271.273 190.556 C 271.588 189.444,271.943 188.179,272.061 187.746 C 273.146 183.796,273.484 182.615,273.659 182.170 C 273.771 181.886,273.862 181.455,273.862 181.212 C 273.862 180.969,273.956 180.594,274.071 180.379 C 274.452 179.668,275.604 175.045,275.445 174.868 C 275.359 174.772,273.632 174.721,271.606 174.755 L 267.923 174.817 267.540 176.279 C 267.329 177.083,266.986 178.347,266.777 179.089 C 266.569 179.831,266.317 180.793,266.217 181.225 C 266.118 181.658,265.770 182.974,265.445 184.148 C 265.119 185.323,264.793 186.609,264.720 187.006 C 264.565 187.850,263.812 188.677,263.660 188.170 C 263.608 187.999,263.341 187.099,263.065 186.172 C 262.790 185.245,262.439 184.081,262.287 183.586 C 262.134 183.092,261.879 182.232,261.719 181.675 C 261.558 181.119,261.203 179.955,260.930 179.089 C 260.656 178.224,260.307 177.060,260.155 176.504 C 259.667 174.721,259.886 174.817,256.325 174.817 L 253.116 174.817 252.469 176.841 C 251.920 178.557,251.368 180.330,250.474 183.249 C 250.009 184.769,249.061 187.895,248.980 188.179 C 248.792 188.831,248.216 187.848,247.792 186.154 C 247.563 185.236,247.204 183.879,246.996 183.137 C 246.787 182.395,246.533 181.484,246.431 181.113 C 246.329 180.742,245.980 179.477,245.656 178.302 C 245.332 177.128,245.006 175.838,244.932 175.436 L 244.798 174.705 240.975 174.705 L 237.153 174.705 237.292 175.436 M335.880 175.117 C 335.179 175.323,334.530 175.568,334.438 175.660 C 334.346 175.753,334.133 175.829,333.966 175.829 C 333.638 175.829,331.808 176.956,331.684 177.234 C 331.643 177.327,331.502 177.403,331.370 177.403 C 330.837 177.403,328.252 180.497,327.520 182.012 C 326.382 184.370,326.251 184.962,326.251 187.746 C 326.251 197.759,336.675 203.820,346.032 199.248 C 348.680 197.954,352.804 193.411,352.207 192.446 C 352.138 192.334,350.408 192.243,348.362 192.243 L 344.643 192.243 343.277 193.086 C 341.421 194.232,338.304 194.340,336.568 193.319 C 335.078 192.443,333.728 190.793,334.177 190.394 C 334.207 190.367,338.481 190.291,343.674 190.225 L 353.116 190.107 353.321 188.983 C 353.639 187.240,353.176 184.769,352.037 182.125 C 349.686 176.671,341.972 173.325,335.880 175.117 M90.536 181.771 C 96.130 184.653,94.921 192.750,88.704 194.041 C 86.296 194.541,82.069 192.734,82.069 191.205 C 82.069 191.034,81.981 190.894,81.875 190.894 C 81.459 190.894,80.885 188.388,81.003 187.090 C 81.246 184.407,82.843 182.445,85.666 181.361 C 86.328 181.107,89.817 181.401,90.536 181.771 M182.294 181.988 C 187.090 184.435,186.759 191.883,181.777 193.649 C 175.024 196.042,169.842 188.241,174.761 183.089 C 176.530 181.236,179.866 180.749,182.294 181.988 M294.818 182.242 C 296.075 183.138,296.104 183.173,297.077 184.883 C 297.727 186.026,298.000 189.330,297.470 189.657 C 297.347 189.734,297.246 189.974,297.246 190.192 C 297.246 192.217,292.616 194.640,289.904 194.035 C 283.112 192.518,282.751 183.839,289.376 181.358 C 290.590 180.903,293.634 181.398,294.818 182.242 M342.573 181.933 C 343.645 182.437,345.671 184.461,345.529 184.887 C 345.405 185.258,334.086 185.283,333.963 184.912 C 333.712 184.159,336.847 181.650,338.392 181.367 C 339.419 181.179,341.596 181.474,342.573 181.933 " stroke="none" fill="#f8f8f8" fill-rule="evenodd"></path><path id="path1" d="M0.000 112.423 L 0.000 224.845 200.000 224.845 L 400.000 224.845 400.000 112.423 L 400.000 0.000 200.000 0.000 L 0.000 0.000 0.000 112.423 M275.998 90.725 L 275.998 133.895 199.339 133.952 C 138.160 133.997,122.644 133.952,122.501 133.727 C 122.286 133.388,122.251 47.807,122.466 47.592 C 122.549 47.509,157.127 47.467,199.307 47.498 L 275.998 47.555 275.998 90.725 M225.737 165.247 C 225.874 165.503,225.970 167.443,225.970 169.968 L 225.970 174.255 229.573 174.255 L 233.177 174.255 233.115 177.459 L 233.052 180.663 229.567 180.776 L 226.082 180.888 225.970 191.006 L 225.857 201.124 222.597 201.189 C 220.804 201.224,219.110 201.197,218.833 201.129 L 218.330 201.004 218.271 191.059 L 218.212 181.113 215.065 181.058 C 210.461 180.978,210.905 181.345,210.905 177.628 C 210.905 173.911,210.461 174.277,215.065 174.197 L 218.212 174.143 218.274 169.656 C 218.318 166.411,218.411 165.121,218.611 164.994 C 219.284 164.567,225.491 164.787,225.737 165.247 M52.606 165.471 C 52.759 165.757,52.839 170.392,52.839 178.962 L 52.839 192.018 61.102 192.021 C 65.646 192.023,69.494 192.107,69.651 192.206 C 69.870 192.345,69.923 193.412,69.876 196.756 L 69.815 201.124 56.661 201.124 L 43.508 201.124 43.449 183.361 C 43.418 173.592,43.440 165.472,43.499 165.318 C 43.702 164.784,52.316 164.929,52.606 165.471 M211.085 165.306 C 211.509 165.731,211.455 171.194,211.023 171.552 C 210.840 171.704,209.803 171.957,208.718 172.116 C 204.516 172.729,204.497 172.759,204.497 178.640 L 204.497 183.137 206.633 183.193 C 210.078 183.283,209.781 182.959,209.781 186.622 C 209.781 190.284,210.078 189.961,206.633 190.051 L 204.497 190.107 204.437 195.556 C 204.366 201.982,204.902 201.284,200.112 201.189 L 196.852 201.124 196.794 187.084 C 196.727 170.682,196.801 170.042,199.047 167.745 C 199.649 167.129,200.051 166.895,201.799 166.147 C 203.855 165.267,210.448 164.670,211.085 165.306 M324.564 177.403 L 324.564 180.888 323.553 180.941 C 320.012 181.126,317.896 182.396,316.776 185.009 C 316.396 185.895,316.358 186.671,316.358 193.474 C 316.358 200.096,316.316 200.980,316.002 201.100 C 315.806 201.175,314.246 201.237,312.535 201.237 C 310.824 201.237,309.264 201.175,309.068 201.100 C 308.601 200.921,308.517 174.990,308.983 174.525 C 309.505 174.003,315.817 174.162,316.199 174.707 C 316.502 175.140,316.552 175.144,317.388 174.795 C 318.870 174.176,320.887 173.831,322.766 173.875 L 324.564 173.918 324.564 177.403 M91.287 174.642 C 93.474 175.240,93.695 175.247,93.976 174.722 C 94.223 174.261,94.361 174.246,97.762 174.306 L 101.293 174.368 101.293 187.746 L 101.293 201.124 97.695 201.124 L 94.098 201.124 94.027 200.506 C 93.988 200.166,93.925 199.888,93.887 199.888 C 93.850 199.888,93.174 200.097,92.385 200.353 C 89.232 201.375,84.610 201.365,82.522 200.331 C 80.790 199.474,79.689 198.888,79.595 198.774 C 79.533 198.698,79.033 198.311,78.483 197.913 C 70.202 191.920,72.643 179.080,82.856 174.913 C 84.868 174.092,88.811 173.965,91.287 174.642 M122.316 174.512 C 123.369 174.756,123.635 174.850,125.126 175.502 C 128.955 177.175,132.272 181.438,133.011 185.632 C 133.427 187.989,133.469 200.561,133.064 200.967 C 132.771 201.259,129.017 201.307,126.813 201.046 L 125.576 200.899 125.464 193.479 C 125.353 186.141,125.345 186.048,124.797 184.974 C 122.392 180.266,115.633 180.280,113.288 184.998 C 112.774 186.032,112.757 186.254,112.648 193.592 L 112.535 201.124 109.275 201.189 C 107.482 201.224,105.787 201.197,105.509 201.128 L 105.003 201.003 105.003 187.985 C 105.003 180.825,105.064 174.806,105.139 174.611 C 105.256 174.307,105.799 174.255,108.855 174.255 L 112.434 174.255 112.648 174.817 C 112.896 175.472,112.891 175.471,113.835 175.081 C 116.020 174.180,119.794 173.927,122.316 174.512 M294.547 174.524 C 295.228 174.663,295.880 174.862,295.998 174.966 C 296.395 175.316,297.357 175.164,297.643 174.705 C 298.106 173.964,304.824 174.016,305.004 174.761 C 305.072 175.039,305.099 181.085,305.065 188.196 L 305.003 201.124 301.464 201.186 L 297.926 201.248 297.642 200.584 L 297.358 199.919 296.459 200.240 C 293.072 201.446,288.953 201.470,286.228 200.299 C 270.102 193.373,277.323 171.001,294.547 174.524 M153.120 174.576 C 158.642 175.789,162.021 178.913,161.843 182.639 L 161.776 184.036 157.617 184.036 L 153.457 184.036 153.383 183.249 C 153.234 181.659,151.963 180.911,149.388 180.898 C 145.229 180.876,145.421 182.361,149.747 183.685 C 160.688 187.035,164.295 190.701,161.774 195.910 C 159.234 201.160,148.552 202.951,141.228 199.356 C 138.204 197.872,136.922 196.016,136.857 193.030 L 136.818 191.231 140.528 191.167 C 145.199 191.086,145.250 191.098,145.250 192.236 C 145.250 193.623,146.228 194.246,148.677 194.419 C 153.660 194.771,154.476 193.372,150.120 191.946 C 146.922 190.900,144.707 190.219,144.499 190.219 C 143.725 190.219,140.068 188.106,139.134 187.119 C 132.679 180.301,141.828 172.096,153.120 174.576 M181.581 174.500 C 182.313 174.635,183.114 174.827,183.361 174.929 C 183.609 175.030,184.259 175.280,184.805 175.485 C 193.107 178.589,195.760 189.612,189.813 196.288 C 188.593 197.657,185.796 199.712,184.756 200.002 C 184.484 200.078,184.058 200.227,183.811 200.333 C 181.226 201.436,176.426 201.193,173.541 199.813 C 169.750 198.000,167.818 195.939,166.177 191.962 C 165.120 189.399,165.340 184.990,166.669 182.125 C 167.956 179.349,172.805 175.111,174.652 175.149 C 174.808 175.152,175.112 175.062,175.326 174.949 C 176.474 174.346,179.544 174.125,181.581 174.500 M244.675 174.536 C 244.870 174.691,245.085 175.070,245.152 175.379 C 245.273 175.934,245.345 176.197,246.098 178.865 C 246.676 180.912,246.892 181.713,247.099 182.574 C 248.229 187.276,248.720 188.420,249.022 187.047 C 249.112 186.636,249.262 186.144,249.355 185.955 C 249.447 185.765,249.624 185.256,249.747 184.823 C 250.344 182.720,251.222 179.947,251.401 179.598 C 251.512 179.384,251.602 178.974,251.602 178.688 C 251.602 178.402,251.686 178.071,251.789 177.954 C 251.892 177.836,252.161 177.083,252.388 176.279 C 252.952 174.278,252.996 174.255,256.269 174.255 C 259.970 174.255,259.758 174.084,260.856 177.965 C 260.996 178.460,261.235 179.269,261.388 179.764 C 261.540 180.259,261.890 181.422,262.165 182.350 C 262.440 183.277,262.745 184.238,262.842 184.486 C 262.940 184.733,263.200 185.572,263.420 186.350 C 263.969 188.287,264.676 187.141,265.472 183.024 C 265.532 182.715,265.712 182.007,265.872 181.450 C 266.031 180.894,266.275 180.008,266.414 179.483 C 267.939 173.712,267.348 174.263,272.014 174.259 C 276.294 174.255,276.153 174.161,275.455 176.557 C 275.194 177.455,274.868 178.595,274.732 179.089 C 274.596 179.584,274.398 180.242,274.293 180.551 C 274.188 180.860,273.889 181.922,273.629 182.912 C 272.946 185.514,272.608 186.745,272.059 188.645 C 271.790 189.573,271.486 190.686,271.382 191.119 C 271.278 191.551,271.093 192.260,270.971 192.693 C 270.849 193.125,270.530 194.289,270.263 195.278 C 269.996 196.268,269.694 197.279,269.592 197.527 C 269.490 197.774,269.234 198.634,269.023 199.438 C 268.530 201.309,268.727 201.229,264.593 201.233 L 261.057 201.237 260.754 200.618 C 260.587 200.278,260.320 199.545,260.160 198.988 C 260.001 198.432,259.788 197.774,259.687 197.527 C 259.586 197.279,259.024 195.660,258.437 193.929 C 256.698 188.795,256.595 188.533,256.319 188.533 C 256.174 188.533,255.559 190.051,254.952 191.906 C 254.345 193.761,253.485 196.391,253.041 197.752 C 251.810 201.528,252.226 201.237,248.056 201.233 C 244.258 201.230,244.086 201.192,243.905 200.337 C 243.840 200.028,243.614 199.168,243.403 198.426 C 243.192 197.684,242.936 196.773,242.834 196.402 C 242.625 195.642,241.871 192.951,241.368 191.175 C 241.185 190.526,240.884 189.463,240.700 188.814 C 240.182 186.983,239.439 184.332,239.235 183.586 C 239.134 183.215,238.798 182.001,238.489 180.888 C 238.181 179.775,237.710 178.060,237.442 177.076 C 237.175 176.092,236.904 175.203,236.840 175.099 C 236.334 174.279,243.686 173.752,244.675 174.536 M342.327 174.610 C 343.193 174.804,344.154 175.023,344.463 175.096 C 349.190 176.204,353.494 182.169,353.534 187.666 C 353.558 190.978,354.560 190.669,343.799 190.669 C 333.756 190.669,334.118 190.626,334.956 191.725 C 336.800 194.142,341.131 194.543,343.637 192.529 C 344.473 191.857,352.233 191.721,352.483 192.374 C 353.132 194.064,347.716 199.280,344.238 200.314 C 343.682 200.479,342.933 200.704,342.575 200.813 C 337.201 202.451,329.392 198.559,326.955 193.030 C 324.029 186.389,327.477 177.974,334.145 175.482 C 334.688 175.279,335.334 175.031,335.582 174.932 C 337.252 174.261,340.160 174.122,342.327 174.610 M84.879 181.989 C 80.877 183.816,79.966 189.061,83.119 192.123 C 86.157 195.074,91.365 194.180,93.262 190.381 C 95.876 185.147,90.266 179.531,84.879 181.989 M177.337 181.795 C 170.712 184.226,172.226 193.789,179.239 193.812 C 184.872 193.830,187.640 187.415,183.707 183.457 C 181.853 181.591,179.539 180.987,177.337 181.795 M288.522 181.977 C 282.427 185.167,284.365 193.817,291.175 193.817 C 296.802 193.817,299.571 187.227,295.632 183.209 C 293.886 181.428,290.644 180.866,288.522 181.977 M338.168 181.661 C 337.015 182.012,335.742 182.797,335.055 183.581 C 333.755 185.061,333.715 185.048,339.741 185.048 C 345.788 185.048,345.761 185.056,344.407 183.547 C 342.980 181.956,340.075 181.078,338.168 181.661 " stroke="none" fill="#202020" fill-rule="evenodd"></path><path id="path2" d="M122.420 47.723 C 122.361 47.878,122.339 67.279,122.371 90.838 L 122.429 133.671 122.485 90.669 L 122.541 47.667 199.213 47.667 L 275.885 47.667 275.885 90.725 L 275.885 133.782 199.269 133.839 L 122.653 133.896 199.325 133.896 L 275.998 133.895 275.998 90.725 L 275.998 47.555 199.262 47.498 C 137.992 47.453,122.505 47.498,122.420 47.723 M171.094 66.412 C 170.530 66.564,169.771 66.904,169.407 67.169 C 168.259 68.004,145.865 90.547,145.953 90.779 C 146.253 91.569,169.090 114.291,170.083 114.789 C 174.517 117.009,179.248 112.157,177.072 107.622 C 176.821 107.101,173.505 103.573,168.724 98.741 L 160.791 90.725 168.410 83.080 C 176.533 74.929,176.786 74.654,177.297 73.432 C 178.879 69.645,175.075 65.340,171.094 66.412 M206.408 66.508 C 205.051 67.023,203.463 68.638,202.938 70.039 C 202.706 70.658,202.271 71.706,201.971 72.370 C 201.430 73.564,200.947 74.681,198.895 79.483 C 198.313 80.843,197.701 82.260,197.535 82.631 C 197.368 83.002,196.959 83.963,196.626 84.767 C 196.292 85.571,195.777 86.762,195.480 87.415 C 195.184 88.068,194.941 88.643,194.941 88.692 C 194.941 88.741,194.587 89.548,194.154 90.485 C 193.721 91.422,193.367 92.236,193.367 92.294 C 193.367 92.352,193.126 92.933,192.831 93.586 C 191.686 96.118,191.343 96.907,191.343 97.012 C 191.343 97.072,191.091 97.680,190.781 98.364 C 190.472 99.047,189.966 100.166,189.657 100.849 C 189.348 101.533,189.095 102.140,189.095 102.197 C 189.095 102.255,188.760 103.037,188.350 103.934 C 187.941 104.831,187.468 105.919,187.301 106.352 C 187.133 106.785,186.927 107.240,186.844 107.364 C 184.641 110.616,187.711 115.609,191.716 115.287 C 194.663 115.051,195.586 114.097,197.773 109.023 C 198.700 106.874,199.706 104.581,200.010 103.929 C 200.314 103.276,200.562 102.697,200.562 102.642 C 200.562 102.588,200.806 102.009,201.104 101.356 C 201.402 100.703,202.407 98.383,203.337 96.200 C 204.267 94.017,205.224 91.791,205.464 91.253 C 207.083 87.626,207.551 86.550,207.942 85.554 C 208.185 84.935,208.637 83.873,208.947 83.193 C 209.257 82.513,209.783 81.298,210.117 80.495 C 210.451 79.691,211.017 78.394,211.376 77.612 C 211.735 76.831,212.029 76.150,212.029 76.100 C 212.029 76.050,212.333 75.346,212.704 74.536 C 214.922 69.693,211.045 64.749,206.408 66.508 M226.379 66.419 C 223.164 67.283,221.501 70.722,222.859 73.696 C 223.229 74.506,225.244 76.671,231.292 82.752 L 239.240 90.743 232.661 97.381 C 222.281 107.854,222.372 107.741,222.372 110.111 C 222.372 113.922,226.518 116.485,229.931 114.784 C 231.141 114.181,253.963 91.305,253.963 90.695 C 253.963 90.169,230.907 67.263,229.907 66.796 C 228.636 66.202,227.597 66.091,226.379 66.419 M218.611 164.994 C 218.411 165.121,218.318 166.411,218.274 169.656 L 218.212 174.143 215.065 174.197 C 210.461 174.277,210.905 173.911,210.905 177.628 C 210.905 181.345,210.461 180.978,215.065 181.058 L 218.212 181.113 218.271 191.059 L 218.330 201.004 218.833 201.129 C 219.110 201.197,220.804 201.224,222.597 201.189 L 225.857 201.124 225.970 191.006 L 226.082 180.888 229.567 180.776 L 233.052 180.663 233.115 177.459 L 233.177 174.255 229.573 174.255 L 225.970 174.255 225.970 169.968 C 225.970 164.383,226.283 164.811,222.196 164.815 C 220.376 164.817,218.763 164.898,218.611 164.994 M43.499 165.318 C 43.440 165.472,43.418 173.592,43.449 183.361 L 43.508 201.124 56.661 201.124 L 69.815 201.124 69.876 196.756 C 69.923 193.412,69.870 192.345,69.651 192.206 C 69.494 192.107,65.646 192.023,61.102 192.021 L 52.839 192.018 52.839 178.962 C 52.839 170.392,52.759 165.757,52.606 165.471 C 52.316 164.929,43.702 164.784,43.499 165.318 M205.846 165.259 C 204.300 165.413,202.687 165.767,201.799 166.147 C 200.051 166.895,199.649 167.129,199.047 167.745 C 198.339 168.469,197.263 170.357,197.451 170.545 C 197.511 170.605,197.788 170.150,198.067 169.534 C 199.234 166.951,202.648 165.538,207.982 165.431 L 210.793 165.374 210.855 168.436 L 210.917 171.498 210.243 171.633 C 209.872 171.707,208.932 171.833,208.154 171.913 C 204.537 172.284,204.160 172.943,204.160 178.898 L 204.160 183.474 206.502 183.474 C 209.788 183.474,209.556 183.235,209.556 186.622 C 209.556 190.008,209.787 189.770,206.506 189.770 L 204.167 189.770 204.107 195.334 L 204.047 200.899 200.501 200.961 L 196.955 201.023 197.036 186.684 C 197.080 178.797,197.185 171.990,197.269 171.557 C 197.413 170.812,197.406 170.800,197.137 171.332 C 196.916 171.768,196.852 175.171,196.852 186.509 L 196.852 201.124 200.112 201.189 C 204.902 201.284,204.366 201.982,204.437 195.556 L 204.497 190.107 206.633 190.051 C 210.078 189.961,209.781 190.284,209.781 186.622 C 209.781 182.959,210.078 183.283,206.633 183.193 L 204.497 183.137 204.497 178.640 C 204.497 172.759,204.516 172.729,208.718 172.116 C 211.430 171.720,211.355 171.826,211.355 168.427 C 211.355 164.713,211.352 164.711,205.846 165.259 M225.450 165.318 C 225.551 165.472,225.683 167.572,225.745 169.983 L 225.857 174.368 229.399 174.430 L 232.940 174.491 232.940 177.515 L 232.940 180.539 229.399 180.601 L 225.857 180.663 225.799 190.843 L 225.740 201.023 222.201 200.961 L 218.662 200.899 218.550 190.894 L 218.437 180.888 215.289 180.833 C 210.686 180.753,211.105 181.075,211.179 177.678 L 211.242 174.817 214.599 174.755 C 218.896 174.675,218.550 175.094,218.550 169.974 C 218.550 167.650,218.611 165.588,218.686 165.392 C 218.866 164.924,225.151 164.855,225.450 165.318 M52.033 165.398 C 52.352 165.520,52.389 166.876,52.392 178.383 C 52.394 185.449,52.456 191.457,52.530 191.734 L 52.665 192.237 61.127 192.296 L 69.590 192.355 69.651 196.684 L 69.712 201.012 56.666 201.012 L 43.620 201.012 43.620 183.137 L 43.620 165.261 47.649 165.261 C 49.865 165.261,51.838 165.323,52.033 165.398 M320.180 174.026 C 319.637 174.143,320.176 174.205,321.922 174.226 L 324.452 174.255 324.452 177.492 L 324.452 180.728 322.709 180.812 C 319.987 180.942,318.242 181.987,316.882 184.301 L 316.245 185.385 316.133 193.142 L 316.020 200.899 312.535 200.899 L 309.050 200.899 309.050 187.858 L 309.050 174.817 312.398 174.755 C 315.315 174.701,315.802 174.743,316.177 175.082 C 316.517 175.390,316.693 175.418,317.015 175.217 C 317.239 175.078,317.866 174.841,318.408 174.691 C 318.950 174.541,319.279 174.378,319.139 174.328 C 319.000 174.277,318.350 174.440,317.695 174.689 C 316.510 175.139,316.501 175.139,316.193 174.698 C 315.817 174.162,309.498 174.010,308.983 174.525 C 308.517 174.990,308.601 200.921,309.068 201.100 C 309.264 201.175,310.824 201.237,312.535 201.237 C 314.246 201.237,315.806 201.175,316.002 201.100 C 316.316 200.980,316.358 200.096,316.358 193.474 C 316.358 186.671,316.396 185.895,316.776 185.009 C 317.896 182.396,320.012 181.126,323.553 180.941 L 324.564 180.888 324.564 177.403 L 324.564 173.918 322.766 173.887 C 321.776 173.870,320.613 173.933,320.180 174.026 M84.542 174.480 L 83.980 174.660 84.542 174.670 C 84.851 174.675,85.509 174.595,86.003 174.493 L 86.903 174.307 86.003 174.303 C 85.509 174.302,84.851 174.381,84.542 174.480 M88.814 174.492 C 90.245 174.746,91.329 174.740,90.725 174.480 C 90.478 174.374,89.719 174.292,89.039 174.299 L 87.802 174.311 88.814 174.492 M93.976 174.722 C 93.782 175.085,93.577 175.171,93.122 175.078 C 91.197 174.688,91.170 174.689,92.187 175.135 C 93.488 175.706,93.921 175.710,94.098 175.155 C 94.232 174.730,94.438 174.705,97.710 174.705 L 101.180 174.705 101.180 187.858 L 101.180 201.012 97.695 201.012 C 94.232 201.012,94.210 201.009,94.207 200.506 C 94.202 199.745,93.859 199.303,93.497 199.592 C 93.333 199.722,92.812 199.953,92.340 200.106 C 91.868 200.258,91.530 200.430,91.588 200.488 C 91.647 200.547,92.163 200.435,92.735 200.241 C 94.041 199.798,93.943 199.778,94.027 200.506 L 94.098 201.124 97.695 201.124 L 101.293 201.124 101.293 187.746 L 101.293 174.368 97.762 174.306 C 94.361 174.246,94.223 174.261,93.976 174.722 M105.139 174.611 C 104.784 175.536,104.995 200.961,105.358 201.100 C 105.873 201.298,112.376 201.268,112.501 201.068 C 112.558 200.975,110.996 200.930,109.029 200.966 L 105.453 201.033 105.453 187.751 L 105.453 174.468 108.879 174.530 C 112.101 174.589,112.310 174.619,112.390 175.042 C 112.499 175.622,112.851 175.837,113.302 175.600 C 113.499 175.497,114.064 175.259,114.559 175.070 C 115.053 174.882,115.293 174.723,115.092 174.716 C 114.891 174.710,114.363 174.857,113.919 175.042 C 112.882 175.476,112.899 175.479,112.648 174.817 L 112.434 174.255 108.855 174.255 C 105.799 174.255,105.256 174.307,105.139 174.611 M116.020 174.480 L 115.458 174.660 116.020 174.666 C 116.329 174.669,117.038 174.591,117.594 174.492 L 118.606 174.311 117.594 174.306 C 117.038 174.303,116.329 174.381,116.020 174.480 M119.636 174.338 C 119.688 174.383,120.388 174.481,121.192 174.556 C 122.134 174.643,122.493 174.620,122.203 174.489 C 121.780 174.299,119.435 174.160,119.636 174.338 M145.968 174.446 C 145.682 174.527,147.180 174.592,149.297 174.592 C 151.414 174.592,152.913 174.527,152.627 174.446 C 152.342 174.366,150.843 174.300,149.297 174.300 C 147.752 174.300,146.253 174.366,145.968 174.446 M177.403 174.480 C 177.054 174.592,177.820 174.658,179.427 174.656 C 181.063 174.653,181.765 174.589,181.338 174.480 C 180.447 174.253,178.111 174.253,177.403 174.480 M236.995 174.583 C 236.846 174.763,236.776 174.995,236.840 175.099 C 236.904 175.203,237.175 176.092,237.442 177.076 C 237.710 178.060,238.181 179.775,238.489 180.888 C 238.798 182.001,239.134 183.215,239.235 183.586 C 239.439 184.332,240.182 186.983,240.700 188.814 C 240.884 189.463,241.185 190.526,241.368 191.175 C 241.871 192.951,242.625 195.642,242.834 196.402 C 242.936 196.773,243.184 197.680,243.385 198.417 C 243.766 199.810,244.134 200.506,243.866 199.325 C 243.650 198.374,243.351 197.209,243.087 196.290 C 242.864 195.513,241.844 191.866,241.483 190.556 C 241.381 190.185,241.133 189.325,240.932 188.645 C 240.215 186.222,240.103 185.825,239.911 185.048 C 239.805 184.615,239.449 183.300,239.120 182.125 C 238.790 180.950,238.438 179.685,238.336 179.314 C 238.233 178.943,237.988 178.083,237.790 177.403 C 237.593 176.723,237.369 175.838,237.292 175.436 L 237.153 174.705 241.005 174.705 C 244.338 174.705,244.857 174.752,244.857 175.054 C 244.857 175.359,245.392 177.447,246.237 180.438 C 246.377 180.933,246.576 181.641,246.679 182.012 C 247.051 183.346,247.555 184.699,247.433 184.036 C 247.256 183.068,246.949 181.877,246.098 178.865 C 245.345 176.197,245.273 175.934,245.152 175.379 C 244.927 174.348,244.566 174.255,240.794 174.255 C 237.980 174.255,237.212 174.321,236.995 174.583 M253.143 174.536 C 252.955 174.691,252.615 175.475,252.388 176.279 C 252.161 177.083,251.892 177.836,251.789 177.954 C 251.686 178.071,251.602 178.445,251.602 178.784 C 251.602 179.123,251.501 179.463,251.377 179.539 C 251.254 179.615,251.158 179.900,251.164 180.171 C 251.178 180.783,251.502 179.969,252.443 176.953 L 253.110 174.817 256.323 174.817 C 259.863 174.817,259.673 174.739,260.123 176.391 C 260.698 178.506,261.327 180.345,261.437 180.234 C 261.502 180.169,261.453 179.834,261.327 179.490 C 261.201 179.146,260.986 178.460,260.850 177.965 C 260.189 175.570,259.831 174.672,259.458 174.473 C 258.840 174.142,253.561 174.195,253.143 174.536 M268.089 174.399 C 267.943 174.458,267.656 175.082,267.450 175.786 C 267.244 176.490,266.984 177.298,266.871 177.582 C 266.759 177.866,266.675 178.322,266.684 178.594 C 266.708 179.248,266.852 178.876,267.453 176.616 L 267.931 174.817 271.610 174.755 C 273.634 174.721,275.359 174.772,275.445 174.868 C 275.604 175.045,274.452 179.668,274.071 180.379 C 273.956 180.594,273.867 180.999,273.872 181.279 C 273.883 181.793,274.167 181.064,274.725 179.089 C 274.865 178.595,275.194 177.455,275.455 176.557 C 276.154 174.159,276.295 174.252,272.014 174.273 C 270.000 174.283,268.234 174.339,268.089 174.399 M288.139 174.492 C 287.843 174.628,288.149 174.651,289.039 174.561 C 289.781 174.485,290.430 174.386,290.482 174.339 C 290.681 174.160,288.565 174.298,288.139 174.492 M292.524 174.492 C 293.955 174.746,295.039 174.740,294.435 174.480 C 294.188 174.374,293.429 174.292,292.749 174.299 L 291.512 174.311 292.524 174.492 M297.643 174.705 C 297.347 175.179,296.256 175.329,296.009 174.930 C 295.933 174.806,295.648 174.713,295.377 174.723 C 294.976 174.738,295.025 174.803,295.639 175.071 C 297.021 175.674,297.617 175.704,297.755 175.176 C 297.873 174.723,298.013 174.705,301.384 174.705 L 304.890 174.705 304.890 187.869 L 304.890 201.033 301.303 200.966 C 299.331 200.930,297.795 200.978,297.892 201.074 C 297.988 201.170,299.628 201.221,301.535 201.187 L 305.003 201.124 305.065 188.196 C 305.099 181.085,305.072 175.039,305.004 174.761 C 304.824 174.016,298.106 173.964,297.643 174.705 M337.718 174.480 C 337.367 174.592,338.129 174.660,339.741 174.660 C 341.354 174.660,342.116 174.592,341.765 174.480 C 341.456 174.381,340.545 174.300,339.741 174.300 C 338.938 174.300,338.027 174.381,337.718 174.480 M82.743 174.918 C 82.558 175.020,81.849 175.368,81.169 175.691 C 72.432 179.834,70.909 192.432,78.483 197.913 C 79.033 198.311,79.533 198.698,79.595 198.774 C 79.657 198.849,80.264 199.193,80.944 199.537 C 81.625 199.881,82.357 200.253,82.571 200.362 C 82.786 200.472,83.140 200.557,83.358 200.551 C 83.576 200.544,83.350 200.374,82.856 200.172 C 79.769 198.912,75.548 195.404,75.548 194.099 C 75.548 193.944,75.447 193.817,75.323 193.817 C 75.200 193.817,75.098 193.635,75.098 193.412 C 75.098 193.189,75.010 192.911,74.901 192.794 C 73.924 191.736,73.541 186.271,74.286 184.036 C 75.683 179.848,78.722 176.752,83.080 175.074 C 83.585 174.880,83.782 174.729,83.530 174.730 C 83.283 174.731,82.929 174.815,82.743 174.918 M123.553 175.074 C 125.986 176.012,127.034 176.702,128.949 178.629 C 130.815 180.508,130.881 180.609,132.455 184.036 C 132.696 184.559,132.782 186.537,132.840 192.861 L 132.914 201.012 130.819 201.010 C 129.667 201.009,128.041 200.944,127.206 200.865 L 125.689 200.722 125.689 193.566 C 125.689 184.616,125.080 182.870,121.525 181.618 C 117.842 180.320,112.588 183.000,112.661 186.138 C 112.672 186.599,112.756 186.491,113.034 185.657 C 114.779 180.423,122.250 179.989,124.797 184.974 C 125.345 186.048,125.353 186.141,125.464 193.479 L 125.576 200.899 126.813 201.046 C 129.017 201.307,132.771 201.259,133.064 200.967 C 133.469 200.561,133.427 187.989,133.011 185.632 C 132.272 181.436,128.938 177.155,125.126 175.506 C 124.632 175.292,124.051 175.024,123.837 174.911 C 123.622 174.798,123.268 174.710,123.050 174.716 C 122.832 174.723,123.058 174.884,123.553 175.074 M142.874 175.259 C 135.232 178.128,134.891 185.675,142.244 189.227 C 143.373 189.773,144.388 190.219,144.499 190.219 C 144.707 190.219,146.922 190.900,150.120 191.946 C 154.476 193.372,153.660 194.771,148.677 194.419 C 146.228 194.246,145.250 193.623,145.250 192.236 C 145.250 191.098,145.199 191.086,140.528 191.167 L 136.818 191.231 136.857 193.030 C 136.906 195.265,137.308 196.258,138.714 197.612 C 140.116 198.963,144.245 200.968,144.696 200.517 C 144.760 200.452,144.330 200.265,143.739 200.102 C 139.532 198.937,137.291 196.565,136.998 192.968 L 136.865 191.333 140.889 191.394 L 144.913 191.456 144.983 192.300 C 145.142 194.221,149.114 195.598,151.771 194.655 C 154.214 193.787,153.666 192.823,150.084 191.689 C 148.971 191.337,147.858 190.977,147.611 190.889 C 147.364 190.802,146.301 190.449,145.250 190.106 C 134.798 186.694,134.214 178.014,144.238 175.067 C 144.905 174.871,145.134 174.738,144.800 174.742 C 144.491 174.745,143.625 174.978,142.874 175.259 M154.356 175.081 C 158.879 176.481,161.664 179.336,161.664 182.572 L 161.664 183.924 157.617 183.924 L 153.569 183.924 153.569 183.234 C 153.569 181.509,152.257 180.705,149.400 180.680 C 146.597 180.657,145.315 181.535,146.577 182.616 C 147.078 183.045,153.028 185.116,153.401 184.991 C 153.541 184.945,152.902 184.676,151.982 184.393 C 146.563 182.730,145.449 182.022,146.971 181.207 C 149.201 180.013,153.199 181.286,153.383 183.249 L 153.457 184.036 157.617 184.036 L 161.776 184.036 161.843 182.639 C 162.006 179.228,157.274 174.637,153.682 174.722 C 153.435 174.728,153.738 174.889,154.356 175.081 M175.267 174.930 C 175.191 175.053,174.957 175.152,174.748 175.149 C 172.802 175.119,167.991 179.273,166.669 182.125 C 165.717 184.177,165.179 188.227,165.631 189.939 C 165.768 190.462,165.830 189.852,165.846 187.803 C 165.892 181.775,169.204 177.228,174.953 175.299 C 176.063 174.927,176.415 174.735,176.011 174.723 C 175.678 174.713,175.343 174.806,175.267 174.930 M183.176 175.115 C 183.816 175.325,184.415 175.571,184.507 175.663 C 184.598 175.754,184.813 175.829,184.984 175.829 C 186.462 175.829,190.334 179.564,191.691 182.298 C 191.982 182.883,192.224 183.239,192.231 183.088 C 192.246 182.743,191.242 180.905,190.486 179.893 C 189.107 178.046,186.524 176.078,184.582 175.394 C 183.972 175.179,183.405 174.936,183.323 174.854 C 183.241 174.772,182.913 174.712,182.593 174.720 C 182.176 174.730,182.340 174.842,183.176 175.115 M286.228 174.972 C 277.228 178.756,274.314 188.775,280.118 195.976 C 281.831 198.102,284.952 200.078,287.690 200.771 C 289.837 201.314,295.484 201.199,294.909 200.623 C 294.844 200.559,293.977 200.638,292.983 200.799 C 291.493 201.041,290.849 201.041,289.320 200.797 C 274.925 198.505,273.103 179.967,286.790 175.059 C 287.285 174.882,287.487 174.736,287.240 174.736 C 286.993 174.736,286.537 174.842,286.228 174.972 M335.620 174.854 C 335.538 174.936,334.973 175.179,334.364 175.393 C 326.725 178.083,323.528 187.783,327.959 194.829 C 329.472 197.233,334.129 200.612,335.841 200.546 C 336.069 200.538,335.852 200.386,335.357 200.209 C 331.873 198.962,328.968 196.476,327.540 193.519 C 326.380 191.119,326.251 190.539,326.251 187.746 C 326.251 184.962,326.382 184.370,327.520 182.012 C 328.252 180.497,330.837 177.403,331.370 177.403 C 331.502 177.403,331.643 177.327,331.684 177.234 C 331.808 176.956,333.638 175.829,333.966 175.829 C 334.133 175.829,334.346 175.753,334.438 175.660 C 334.530 175.568,335.179 175.323,335.880 175.117 C 336.923 174.810,337.029 174.738,336.462 174.723 C 336.081 174.713,335.702 174.772,335.620 174.854 M343.451 175.071 C 346.582 176.003,348.962 177.684,350.891 180.326 C 351.790 181.557,352.025 181.992,352.578 183.456 C 352.738 183.880,352.908 184.109,352.956 183.966 C 353.133 183.434,351.427 180.386,350.194 179.033 C 348.145 176.785,344.480 174.658,342.761 174.721 C 342.522 174.729,342.833 174.887,343.451 175.071 M266.379 179.501 C 266.110 180.185,266.174 180.760,266.464 180.263 C 266.592 180.042,266.662 179.688,266.619 179.476 C 266.548 179.123,266.527 179.125,266.379 179.501 M261.515 180.821 C 261.504 181.032,261.583 181.437,261.691 181.721 C 261.799 182.005,261.993 182.591,262.122 183.024 C 262.251 183.457,262.629 184.722,262.963 185.835 C 263.296 186.948,263.610 187.999,263.661 188.170 C 263.811 188.678,264.565 187.850,264.720 187.006 C 264.793 186.609,265.121 185.323,265.448 184.148 C 266.136 181.679,266.392 180.276,265.980 181.225 C 265.846 181.535,265.652 182.192,265.549 182.687 C 264.579 187.338,263.988 188.356,263.420 186.350 C 263.200 185.572,262.940 184.733,262.843 184.486 C 262.746 184.238,262.412 183.227,262.100 182.237 C 261.789 181.248,261.526 180.611,261.515 180.821 M250.815 181.225 C 250.731 181.491,250.712 181.760,250.774 181.821 C 250.836 181.883,250.955 181.716,251.040 181.450 C 251.124 181.184,251.143 180.916,251.081 180.854 C 251.019 180.792,250.899 180.959,250.815 181.225 M85.666 181.376 C 83.466 182.125,81.140 184.520,81.176 185.999 C 81.180 186.156,81.424 185.792,81.719 185.191 C 82.882 182.816,84.651 181.660,87.465 181.435 L 89.151 181.300 87.577 181.280 C 86.712 181.270,85.852 181.313,85.666 181.376 M178.921 181.384 C 179.199 181.438,179.654 181.438,179.933 181.384 C 180.211 181.330,179.983 181.287,179.427 181.287 C 178.870 181.287,178.642 181.330,178.921 181.384 M290.332 181.389 C 290.795 181.438,291.554 181.438,292.018 181.389 C 292.482 181.341,292.102 181.301,291.175 181.301 C 290.247 181.301,289.868 181.341,290.332 181.389 M339.238 181.384 C 339.518 181.438,339.923 181.436,340.138 181.380 C 340.353 181.324,340.124 181.280,339.629 181.282 C 339.134 181.285,338.958 181.331,339.238 181.384 M90.051 181.870 C 95.009 184.131,95.259 190.412,90.500 193.163 C 89.410 193.793,89.344 194.102,90.420 193.536 C 94.568 191.351,95.407 186.175,92.128 182.993 C 91.193 182.086,90.105 181.447,89.510 181.455 C 89.313 181.458,89.556 181.645,90.051 181.870 M176.397 181.914 C 174.917 182.652,173.128 184.781,173.132 185.800 C 173.132 185.943,173.371 185.590,173.662 185.016 C 174.458 183.448,175.628 182.422,177.337 181.795 C 177.844 181.609,178.007 181.479,177.740 181.475 C 177.493 181.471,176.888 181.669,176.397 181.914 M181.449 181.842 C 182.089 182.068,182.935 182.674,183.754 183.493 C 185.205 184.944,185.473 184.951,184.236 183.505 C 183.410 182.541,181.568 181.436,180.839 181.468 C 180.619 181.478,180.893 181.646,181.449 181.842 M288.027 181.936 C 281.590 185.649,285.068 195.353,292.362 194.030 C 294.359 193.668,297.246 191.400,297.246 190.192 C 297.246 189.974,297.347 189.734,297.470 189.657 C 298.331 189.125,297.639 185.645,296.234 183.444 C 295.875 182.882,293.748 181.450,293.284 181.457 C 293.048 181.461,293.342 181.700,293.949 181.997 C 299.904 184.915,297.815 193.817,291.175 193.817 C 284.365 193.817,282.427 185.167,288.522 181.977 C 289.053 181.698,289.337 181.473,289.151 181.476 C 288.966 181.480,288.460 181.686,288.027 181.936 M336.818 181.925 C 335.847 182.471,333.845 184.559,333.960 184.906 C 334.086 185.283,345.403 185.264,345.529 184.887 C 345.767 184.173,342.340 181.421,341.262 181.461 C 341.106 181.466,341.585 181.755,342.327 182.102 C 343.695 182.741,345.138 184.078,345.138 184.705 C 345.138 185.003,344.430 185.048,339.741 185.048 C 333.715 185.048,333.755 185.061,335.055 183.581 C 335.742 182.797,337.015 182.012,338.168 181.661 L 338.730 181.489 338.168 181.486 C 337.858 181.484,337.251 181.681,336.818 181.925 M273.566 182.211 C 273.481 182.431,273.418 182.780,273.426 182.986 C 273.436 183.235,273.514 183.178,273.658 182.819 C 273.777 182.520,273.840 182.171,273.797 182.043 C 273.754 181.915,273.650 181.990,273.566 182.211 M250.266 183.079 C 250.109 183.605,249.891 184.268,249.780 184.552 C 249.669 184.837,249.584 185.241,249.590 185.452 C 249.596 185.662,249.736 185.481,249.900 185.048 C 250.419 183.680,250.779 182.351,250.663 182.235 C 250.601 182.173,250.422 182.553,250.266 183.079 M192.376 183.924 C 192.979 186.382,192.972 188.549,192.351 191.456 C 192.246 191.952,192.268 192.043,192.438 191.799 C 193.204 190.699,193.291 185.616,192.571 184.074 C 192.321 183.539,192.272 183.501,192.376 183.924 M272.743 185.324 C 272.463 186.347,272.145 187.487,272.036 187.858 C 271.718 188.944,270.718 192.511,270.493 193.367 C 270.378 193.800,270.021 195.065,269.699 196.178 C 269.377 197.291,269.007 198.606,268.878 199.101 C 268.337 201.175,268.693 201.012,264.703 201.012 L 261.155 201.012 260.909 200.393 C 260.774 200.053,260.374 198.865,260.020 197.752 C 259.667 196.639,259.317 195.627,259.243 195.503 C 259.169 195.379,258.557 193.582,257.885 191.508 C 256.511 187.277,256.299 187.064,255.587 189.207 C 255.341 189.949,255.040 190.774,254.918 191.040 C 254.797 191.306,254.739 191.649,254.791 191.803 C 254.842 191.956,255.146 191.283,255.467 190.307 C 255.787 189.331,256.170 188.533,256.316 188.533 C 256.595 188.533,256.696 188.791,258.437 193.929 C 259.024 195.660,259.586 197.279,259.687 197.527 C 259.788 197.774,260.001 198.432,260.160 198.988 C 260.320 199.545,260.587 200.278,260.754 200.618 L 261.057 201.237 264.593 201.233 C 268.727 201.229,268.530 201.309,269.023 199.438 C 269.234 198.634,269.490 197.774,269.592 197.527 C 269.694 197.279,269.996 196.268,270.263 195.278 C 270.530 194.289,270.849 193.125,270.971 192.693 C 271.093 192.260,271.278 191.551,271.380 191.119 C 271.594 190.218,272.831 185.803,273.223 184.541 C 273.367 184.076,273.432 183.644,273.369 183.580 C 273.305 183.516,273.023 184.301,272.743 185.324 M353.138 185.273 C 353.592 188.521,353.663 188.818,353.548 187.008 C 353.487 186.045,353.338 185.033,353.217 184.759 C 353.052 184.385,353.032 184.513,353.138 185.273 M247.578 184.981 C 247.480 186.108,248.747 189.007,248.976 188.179 C 249.025 188.003,249.181 187.497,249.322 187.055 C 249.631 186.089,249.642 185.881,249.379 186.044 C 249.269 186.112,249.112 186.530,249.029 186.973 C 248.871 187.810,248.253 187.736,248.212 186.875 C 248.189 186.378,247.608 184.642,247.578 184.981 M154.037 185.269 C 154.232 185.383,154.883 185.644,155.484 185.848 C 160.155 187.433,163.034 191.648,161.840 195.150 C 161.216 196.978,158.757 199.438,157.552 199.438 C 157.382 199.438,157.167 199.514,157.076 199.607 C 156.985 199.699,156.437 199.944,155.858 200.151 C 155.280 200.358,154.978 200.535,155.189 200.545 C 156.317 200.596,159.949 198.618,160.931 197.418 C 164.378 193.204,161.809 188.083,154.852 185.299 C 154.094 184.996,153.535 184.976,154.037 185.269 M185.163 185.385 C 188.023 192.472,177.609 197.233,173.794 190.582 C 173.093 189.358,172.880 189.422,173.502 190.669 C 175.896 195.468,183.552 195.031,185.364 189.992 C 185.840 188.669,185.783 185.676,185.273 185.204 C 185.039 184.988,185.017 185.024,185.163 185.385 M172.817 187.015 C 172.746 187.479,172.777 188.212,172.886 188.645 C 173.058 189.327,173.088 189.215,173.108 187.802 C 173.133 186.016,173.017 185.703,172.817 187.015 M81.014 187.634 C 81.015 188.375,81.057 188.652,81.107 188.248 C 81.157 187.844,81.156 187.237,81.105 186.899 C 81.054 186.561,81.013 186.892,81.014 187.634 M353.220 189.432 L 353.120 190.107 343.676 190.225 C 338.482 190.291,334.207 190.367,334.177 190.394 C 333.558 190.944,336.555 193.842,337.706 193.806 C 337.898 193.800,337.491 193.504,336.801 193.147 C 335.605 192.530,334.207 191.106,334.505 190.809 C 334.582 190.732,338.764 190.669,343.799 190.669 C 353.786 190.669,353.580 190.696,353.405 189.390 L 353.320 188.758 353.220 189.432 M81.177 189.191 C 81.162 189.585,81.709 190.894,81.889 190.894 C 81.988 190.894,82.069 191.034,82.069 191.205 C 82.069 192.655,86.483 194.595,88.589 194.071 C 89.252 193.906,89.106 193.873,87.658 193.859 C 84.872 193.831,82.950 192.630,81.762 190.174 C 81.445 189.519,81.182 189.077,81.177 189.191 M165.947 191.178 C 165.941 191.396,166.025 191.750,166.135 191.965 C 166.244 192.180,166.468 192.659,166.634 193.030 C 167.688 195.397,169.509 197.489,171.684 198.834 C 172.831 199.543,175.129 200.563,175.543 200.546 C 175.762 200.538,175.537 200.386,175.042 200.209 C 171.024 198.771,168.041 195.974,166.544 192.243 C 166.222 191.439,165.953 190.960,165.947 191.178 M343.658 192.524 C 343.306 192.802,342.660 193.199,342.223 193.405 C 341.786 193.611,341.584 193.789,341.775 193.799 C 341.967 193.809,342.675 193.465,343.349 193.036 L 344.576 192.254 348.328 192.249 C 352.586 192.242,352.550 192.225,351.714 193.851 C 350.429 196.352,347.094 199.065,343.901 200.208 C 343.406 200.385,343.153 200.536,343.339 200.543 C 346.068 200.644,353.209 194.265,352.483 192.374 C 352.235 191.725,344.503 191.857,343.658 192.524 M191.361 193.670 C 190.234 195.936,187.984 198.097,185.385 199.412 C 184.643 199.787,184.190 200.099,184.378 200.103 C 186.241 200.152,193.132 193.282,192.177 192.327 C 192.123 192.272,191.755 192.877,191.361 193.670 M253.145 196.559 L 251.714 200.899 248.056 200.961 C 244.433 201.022,244.395 201.018,244.191 200.511 C 243.990 200.009,243.986 200.009,243.972 200.482 C 243.951 201.176,244.287 201.237,248.130 201.237 C 252.401 201.237,251.602 202.190,254.318 193.852 C 254.574 193.067,254.736 192.379,254.679 192.322 C 254.622 192.265,253.932 194.172,253.145 196.559 M338.898 193.981 C 339.362 194.029,340.121 194.029,340.585 193.981 C 341.048 193.932,340.669 193.892,339.741 193.892 C 338.814 193.892,338.435 193.932,338.898 193.981 M297.113 199.645 C 297.000 199.748,296.522 199.957,296.050 200.108 C 295.578 200.259,295.240 200.430,295.298 200.488 C 295.356 200.546,295.843 200.445,296.381 200.263 C 297.105 200.018,297.401 199.999,297.523 200.191 C 297.631 200.359,297.690 200.317,297.692 200.069 C 297.696 199.609,297.393 199.386,297.113 199.645 M183.137 200.337 C 182.703 200.524,182.705 200.531,183.180 200.546 C 183.450 200.555,183.735 200.461,183.811 200.337 C 183.975 200.071,183.755 200.071,183.137 200.337 M84.429 200.792 C 84.800 200.919,85.913 201.060,86.903 201.106 C 88.540 201.181,88.580 201.173,87.352 201.021 C 86.610 200.929,85.497 200.788,84.879 200.708 C 83.940 200.586,83.866 200.600,84.429 200.792 M89.488 200.787 C 88.942 200.962,88.945 200.967,89.601 200.967 C 89.972 200.967,90.528 200.886,90.838 200.787 C 91.384 200.612,91.381 200.607,90.725 200.607 C 90.354 200.607,89.798 200.688,89.488 200.787 M145.812 200.816 C 146.685 201.133,152.991 201.132,154.019 200.815 C 154.676 200.613,154.565 200.599,153.345 200.734 C 151.459 200.943,148.454 200.943,146.599 200.736 C 145.420 200.603,145.268 200.619,145.812 200.816 M176.547 200.821 C 176.832 200.901,178.078 200.967,179.314 200.967 C 180.551 200.967,181.796 200.901,182.082 200.821 C 182.367 200.740,181.122 200.675,179.314 200.675 C 177.506 200.675,176.261 200.740,176.547 200.821 M336.861 200.821 C 337.554 201.016,342.000 201.021,342.487 200.827 C 342.699 200.743,341.403 200.675,339.607 200.675 C 337.812 200.675,336.576 200.740,336.861 200.821 " stroke="none" fill="#3db4c4" fill-rule="evenodd"></path></g></svg>