<svg width="215" height="82" xmlns="http://www.w3.org/2000/svg"><path d="M154.41 10.804c0-1.935 1.161-3.484 2.855-3.484 1.695 0 2.857 1.549 2.857 3.484s-1.162 3.484-2.857 3.484c-1.694 0-2.856-1.549-2.856-3.484m4.744 0c0-1.549-.823-2.565-1.888-2.565s-1.889 1.016-1.889 2.565.824 2.565 1.89 2.565c1.064 0 1.887-1.016 1.887-2.565m2.23 3.387h.871V7.417h-.871zm2.326 0h.87V7.417h-.87zm1.985-.726l.58-.532c.194.29.485.532.872.532.436 0 .726-.241.726-.58 0-.387-.338-.533-.774-.726-.533-.242-1.211-.542-1.211-1.403 0-.678.484-1.307 1.356-1.307.63 0 1.113.29 1.405.629l-.572.514c-.097-.098-.301-.37-.736-.37-.339 0-.581.243-.581.534 0 .387.387.58.823.773.601.261 1.163.592 1.163 1.404 0 .775-.582 1.354-1.55 1.354-.92 0-1.452-.724-1.501-.822m3.923-1.597c0-1.403.872-2.419 2.034-2.419.968 0 1.5.725 1.645.968l-.629.484c-.096-.194-.436-.63-1.016-.63-.679 0-1.162.678-1.162 1.597 0 .987.502 1.598 1.162 1.598.629 0 1.016-.484 1.113-.63l.58.484c-.144.242-.725.968-1.693.968-1.162 0-2.034-1.016-2.034-2.42m4.36 0c0-1.403.871-2.419 2.032-2.419 1.163 0 2.035 1.016 2.035 2.42 0 1.403-.872 2.419-2.035 2.419-1.16 0-2.032-1.016-2.032-2.42m3.195 0c0-.92-.484-1.597-1.163-1.597-.677 0-1.16.678-1.16 1.597 0 .92.483 1.598 1.16 1.598.679 0 1.163-.678 1.163-1.598m1.89-3.871c0-.29.242-.532.533-.532.29 0 .532.242.532.532 0 .29-.242.533-.532.533a.537.537 0 01-.533-.533zm.097 6.194h.872V9.546h-.872v4.645zm2.277 0h.87V7.417h-.87zm-25.429 5.44h-1.598v-.919h4.163v.92h-1.597v5.855h-.968V19.63m2.761 3.534c0-1.403.872-2.42 2.033-2.42 1.163 0 1.937 1.017 1.937 2.274 0 .243-.05.485-.05.485h-3.03c.078.726.563 1.258 1.24 1.258.726 0 1.163-.484 1.21-.58l.485.531a2.04 2.04 0 01-1.695.872c-1.288 0-2.13-1.065-2.13-2.42m3.089-.436c-.068-.735-.504-1.161-1.056-1.161-.562 0-.987.445-1.133 1.161h2.189m1.9-3.435c0-.29.242-.533.532-.533.29 0 .533.243.533.533 0 .29-.242.532-.533.532a.536.536 0 01-.532-.532zm.097 6.194h.871v-4.645h-.871v4.645zm1.986-2.323c0-1.403.872-2.42 2.033-2.42.97 0 1.501.726 1.647.968l-.63.484c-.097-.193-.437-.629-1.017-.629-.677 0-1.161.677-1.161 1.597 0 .986.503 1.597 1.16 1.597.63 0 1.018-.484 1.114-.629l.582.484c-.144.242-.726.968-1.695.968-1.161 0-2.033-1.017-2.033-2.42m4.697-2.323h.872v.533h.029c.242-.388.697-.63 1.181-.63.92 0 1.502.58 1.502 1.79v2.952h-.872v-2.903c0-.628-.34-1.016-.823-1.016-.63 0-1.017.388-1.017 1.162v2.757h-.872v-4.645m4.7 2.323c0-1.403.87-2.42 2.033-2.42 1.162 0 1.936 1.017 1.936 2.274 0 .243-.049.485-.049.485h-3.03c.077.726.562 1.258 1.24 1.258.726 0 1.162-.484 1.21-.58l.484.531c-.097.146-.63.872-1.695.872-1.287 0-2.13-1.065-2.13-2.42m3.09-.436c-.069-.735-.504-1.161-1.056-1.161-.562 0-.988.445-1.134 1.161h2.19m1.754.436c0-1.403.87-2.42 2.033-2.42 1.162 0 2.034 1.017 2.034 2.42s-.872 2.42-2.034 2.42-2.034-1.017-2.034-2.42m3.196 0c0-.92-.485-1.597-1.162-1.597-.678 0-1.162.677-1.162 1.597 0 .92.484 1.597 1.162 1.597.677 0 1.162-.677 1.162-1.597m2.035 2.322h.872v-6.774h-.871zm1.987-1.209c0-.726.436-1.297 1.356-1.5l1.209-.271v-.145c0-.455-.29-.794-.774-.794-.582 0-.892.417-.988.561l-.56-.512c.096-.146.58-.871 1.597-.871.968 0 1.597.628 1.597 1.597v3.144h-.872v-.628h-.028a1.29 1.29 0 01-1.181.726c-.775 0-1.356-.532-1.356-1.307m2.565-.774v-.31l-1.016.252c-.436.106-.678.348-.678.735s.29.63.629.63c.63 0 1.065-.533 1.065-1.307m2.278 1.983h.87v-4.645h-.87v4.645zm.678-6.822h.968l-.872 1.403h-.678l.582-1.403zm1.308 4.5c0-1.403.872-2.42 2.034-2.42s2.033 1.017 2.033 2.42-.871 2.42-2.033 2.42-2.034-1.017-2.034-2.42m3.196 0c0-.92-.485-1.597-1.162-1.597-.679 0-1.162.677-1.162 1.597 0 .92.483 1.597 1.162 1.597.677 0 1.162-.677 1.162-1.597m1.744 0c0-1.403.872-2.42 2.033-2.42.97 0 1.501.726 1.647.968l-.63.484c-.097-.193-.437-.629-1.017-.629-.677 0-1.161.677-1.161 1.597 0 .986.502 1.597 1.16 1.597.63 0 1.018-.484 1.114-.629l.582.484c-.145.242-.726.968-1.695.968-1.161 0-2.033-1.017-2.033-2.42m4.747-4.452h.872v2.661h.029c.242-.387.697-.629 1.18-.629.921 0 1.502.581 1.502 1.79v2.953h-.871v-2.904c0-.629-.34-1.017-.824-1.017-.63 0-1.016.388-1.016 1.162v2.759h-.872v-6.775m5.182 5.517v-2.565h-.678v-.822h.388c.241 0 .387-.146.387-.436v-1.065h.775v1.5h.823v.823h-.823v2.517c0 .386.193.58.532.58a.963.963 0 00.436-.097v.823a2.161 2.161 0 01-.63.096c-.775 0-1.21-.434-1.21-1.354m2.567.048c0-.726.436-1.297 1.356-1.5l1.21-.271v-.145c0-.455-.29-.794-.775-.794-.58 0-.89.417-.988.561l-.56-.512c.097-.146.58-.871 1.597-.871.969 0 1.598.628 1.598 1.597v3.144h-.873v-.628h-.028a1.292 1.292 0 01-1.181.726c-.775 0-1.356-.532-1.356-1.307m2.565-.774v-.31l-1.016.252c-.435.106-.678.348-.678.735s.291.63.63.63c.63 0 1.064-.533 1.064-1.307m-59.717 32.38l.6-.658c.339.484.803.755 1.336.755.581 0 .968-.435.968-.919 0-.716-.533-1.017-1.152-1.316-.746-.359-1.51-.862-1.51-2.072 0-1.016.724-1.742 1.839-1.742.678 0 1.259.339 1.646.872l-.64.61a1.19 1.19 0 00-1.006-.562c-.532 0-.872.339-.872.822 0 .717.581 1.017 1.143 1.317.698.377 1.52.86 1.52 2.071 0 1.112-.871 1.838-1.985 1.838a2.223 2.223 0 01-1.888-1.016m4.747-1.403c0-1.403.871-2.42 2.032-2.42 1.163 0 2.035 1.017 2.035 2.42s-.872 2.42-2.035 2.42c-1.16 0-2.032-1.017-2.032-2.42m3.195 0c0-.92-.484-1.597-1.163-1.597-.677 0-1.16.677-1.16 1.597 0 .92.483 1.597 1.16 1.597.679 0 1.163-.678 1.163-1.597m1.988.629v-2.952h.87v2.904c0 .629.34 1.016.824 1.016.63 0 1.017-.387 1.017-1.161v-2.759h.871v4.646h-.871v-.533h-.03c-.242.388-.696.63-1.181.63-.92 0-1.5-.581-1.5-1.791m5.278.435v-2.563h-.678v-.824h.388c.241 0 .388-.145.388-.435v-1.065h.774v1.5h.823v.824h-.823v2.515c0 .387.193.581.533.581a.963.963 0 00.434-.097v.823a2.13 2.13 0 01-.628.096c-.776 0-1.21-.435-1.21-1.355m3.003-5.516h.872v2.662h.028c.242-.387.698-.63 1.181-.63.921 0 1.502.581 1.502 1.79v2.953h-.871V53.9c0-.63-.34-1.017-.824-1.017-.63 0-1.016.387-1.016 1.16v2.76h-.872v-6.775m7.12 0h3.776v.92h-2.808v1.886h2.228v.92h-2.228v2.129h2.906v.92h-3.874v-6.775m4.649 5.565c0-.726.436-1.297 1.357-1.5l1.209-.271v-.146c0-.454-.29-.793-.774-.793-.58 0-.89.416-.988.562l-.561-.514c.097-.145.581-.87 1.597-.87.968 0 1.599.629 1.599 1.596v3.145h-.873v-.628h-.028a1.29 1.29 0 01-1.181.725c-.776 0-1.357-.531-1.357-1.306m2.566-.774v-.31l-1.016.251c-.435.107-.678.35-.678.736 0 .387.29.63.63.63.629 0 1.064-.533 1.064-1.307m1.987 1.258l.581-.533c.193.29.484.533.872.533.436 0 .726-.242.726-.58 0-.388-.338-.533-.774-.727-.533-.242-1.211-.541-1.211-1.403 0-.678.483-1.307 1.356-1.307.63 0 1.113.29 1.404.629l-.571.514c-.098-.097-.301-.369-.736-.369-.34 0-.582.243-.582.533 0 .388.388.58.824.774.6.262 1.162.59 1.162 1.403 0 .775-.582 1.355-1.55 1.355-.92 0-1.452-.725-1.501-.822m4.505-.533v-2.563h-.677v-.824h.386c.242 0 .388-.145.388-.435v-1.065h.774v1.5h.824v.824h-.824v2.515c0 .387.193.581.533.581a.968.968 0 00.435-.097v.823a2.13 2.13 0 01-.628.096c-.776 0-1.211-.435-1.211-1.355m-37.441 6.699h-1.598v-.919h4.163v.919h-1.597v5.856h-.968v-5.856m2.761 3.533c0-1.404.872-2.42 2.033-2.42 1.163 0 1.937 1.016 1.937 2.274 0 .243-.05.484-.05.484h-3.03c.078.726.563 1.258 1.24 1.258.726 0 1.163-.484 1.21-.58l.485.532c-.098.145-.63.871-1.695.871-1.288 0-2.13-1.065-2.13-2.42m3.089-.435c-.068-.736-.504-1.161-1.056-1.161-.562 0-.987.445-1.133 1.161h2.189m1.755.436c0-1.404.871-2.42 2.032-2.42.97 0 1.502.726 1.647.968l-.63.484c-.096-.193-.436-.629-1.017-.629-.677 0-1.16.677-1.16 1.597 0 .986.502 1.596 1.16 1.596.63 0 1.018-.484 1.115-.628l.58.483c-.144.242-.725.968-1.695.968-1.16 0-2.032-1.017-2.032-2.42m4.746-4.451h.872v2.661h.029c.242-.387.696-.629 1.18-.629.921 0 1.502.58 1.502 1.79V68.1h-.871v-2.904c0-.63-.34-1.017-.824-1.017-.63 0-1.016.387-1.016 1.161v2.76h-.872v-6.775m4.941 2.128h.87v.532h.03c.242-.387.697-.63 1.181-.63.92 0 1.502.582 1.502 1.792v2.951h-.871v-2.903c0-.629-.34-1.017-.824-1.017-.63 0-1.017.388-1.017 1.162v2.758h-.871v-4.645m4.698 2.323c0-1.404.871-2.42 2.032-2.42 1.163 0 2.035 1.016 2.035 2.42 0 1.402-.872 2.42-2.035 2.42-1.16 0-2.032-1.018-2.032-2.42m3.195 0c0-.92-.484-1.597-1.163-1.597-.677 0-1.16.677-1.16 1.597 0 .919.483 1.596 1.16 1.596.679 0 1.163-.677 1.163-1.596m2.036 2.322h.87v-6.774h-.87zm2.035-2.322c0-1.404.87-2.42 2.032-2.42 1.163 0 2.034 1.016 2.034 2.42 0 1.402-.871 2.42-2.034 2.42-1.161 0-2.032-1.018-2.032-2.42m3.195 0c0-.92-.485-1.597-1.163-1.597-.677 0-1.161.677-1.161 1.597 0 .919.484 1.596 1.16 1.596.68 0 1.164-.677 1.164-1.596m1.86 3.406l.562-.533c.097.146.484.708 1.161.708.728 0 1.212-.63 1.212-1.5v-.533h-.03c-.184.29-.551.678-1.229.678-1.065 0-1.792-.968-1.792-2.324 0-1.354.727-2.322 1.792-2.322.678 0 1.045.387 1.23.677h.029v-.58h.87v4.403c0 1.307-.822 2.275-2.033 2.275-1.161 0-1.627-.755-1.772-.949m2.935-3.504c0-.91-.456-1.548-1.085-1.548-.61 0-1.095.63-1.095 1.548 0 .92.484 1.55 1.095 1.55.629 0 1.085-.64 1.085-1.55m2.132-3.774c0-.29.242-.532.533-.532.29 0 .532.242.532.532 0 .29-.242.533-.532.533a.538.538 0 01-.533-.533zm.097 6.194h.872v-4.645h-.872v4.645zm1.986-2.322c0-1.404.872-2.42 2.034-2.42.968 0 1.5.726 1.645.968l-.629.484c-.096-.193-.436-.629-1.016-.629-.679 0-1.162.677-1.162 1.597 0 .986.502 1.596 1.162 1.596.629 0 1.016-.484 1.113-.628l.58.483c-.144.242-.725.968-1.693.968-1.162 0-2.034-1.017-2.034-2.42m4.407 1.114c0-.726.436-1.298 1.356-1.5l1.21-.272v-.145c0-.454-.29-.794-.774-.794-.582 0-.892.417-.988.562l-.561-.514c.097-.145.58-.87 1.597-.87.968 0 1.598.63 1.598 1.597v3.145h-.873v-.63h-.027a1.29 1.29 0 01-1.182.727c-.775 0-1.356-.532-1.356-1.306m2.565-.774v-.31l-1.015.251c-.436.107-.678.35-.678.735 0 .388.29.63.629.63.63 0 1.064-.532 1.064-1.306m2.328 1.983h.87v-6.774h-.87zM154.41 77.07v-4.45h.968v4.403c0 .967.58 1.547 1.307 1.547.726 0 1.307-.58 1.307-1.547v-4.404h.969v4.452c0 1.354-.969 2.42-2.276 2.42s-2.276-1.066-2.276-2.42m6.006-2.323h.872v.532h.029c.243-.387.697-.63 1.181-.63.92 0 1.502.582 1.502 1.792v2.951h-.872V76.49c0-.629-.34-1.016-.824-1.016-.628 0-1.016.387-1.016 1.161v2.758h-.872v-4.645m4.843-1.548c0-.291.243-.532.533-.532.29 0 .533.24.533.531 0 .29-.242.533-.533.533a.538.538 0 01-.533-.533zm.098 6.193h.871v-4.645h-.871v4.645zm1.696-4.645h.967l1.056 3.436h.03l1.093-3.436h.92l-1.55 4.645h-.968l-1.548-4.645m4.648 2.322c0-1.402.872-2.42 2.033-2.42 1.163 0 1.938 1.018 1.938 2.275 0 .243-.05.485-.05.485h-3.03c.077.725.563 1.257 1.24 1.257.726 0 1.163-.483 1.21-.58l.485.532c-.098.145-.63.871-1.695.871-1.288 0-2.13-1.065-2.13-2.42m3.089-.435c-.068-.735-.504-1.161-1.057-1.161-.56 0-.986.444-1.132 1.161h2.189m1.996-1.887h.872v.532h.029c.145-.242.553-.63 1.23-.63h.145v.921h-.29c-.679 0-1.114.493-1.114 1.257v2.565h-.872v-4.645m2.859 3.92l.58-.533c.194.29.484.533.872.533.436 0 .726-.243.726-.58 0-.389-.338-.534-.774-.727-.533-.242-1.211-.542-1.211-1.403 0-.678.484-1.307 1.356-1.307.63 0 1.113.29 1.404.63l-.571.512c-.097-.096-.301-.368-.736-.368-.34 0-.582.242-.582.533 0 .387.388.58.824.774.6.262 1.163.59 1.163 1.403 0 .775-.582 1.355-1.551 1.355-.92 0-1.452-.725-1.5-.822m4.068-5.468c0-.291.242-.532.533-.532.29 0 .532.24.532.531 0 .29-.242.533-.532.533a.538.538 0 01-.533-.533zm.097 6.193h.872v-4.645h-.872v4.645zm2.566-1.258v-2.564h-.677v-.822h.387c.241 0 .388-.146.388-.436v-1.066h.774v1.502h.823v.822h-.823v2.516c0 .386.193.58.533.58a.954.954 0 00.435-.096v.823a2.161 2.161 0 01-.63.096c-.775 0-1.21-.435-1.21-1.355m2.568 3.145v-.773a.977.977 0 00.436.096c.29 0 .513-.145.629-.493l.242-.717-1.548-4.645h.918l1.086 3.436h.028l1.066-3.436h.871l-1.743 5.322c-.3.92-.678 1.356-1.404 1.356-.241 0-.484-.097-.581-.146M92.05 79.219V49.698h-9.217v-7.12h26.45v7.12h-9.22v29.521H92.05m30.533-14.395c0 5.078 2.32 7.8 6.714 7.8 4.34 0 6.664-2.722 6.664-7.8V42.578h7.724v22.3c0 8.844-5.25 14.864-14.388 14.864-9.188 0-14.439-6.02-14.439-14.864v-22.3h7.725v22.246M82.429 25.726v-.706h8.225v.506c0 3.319 1.993 5.058 5.261 5.058 2.247 0 3.829-.769 4.599-2.044.305-.558.453-1.18.453-1.886 0-.612-.095-1.128-.348-1.634-.623-1.023-1.94-1.845-4.24-2.297l-4.45-.875c-3.721-.759-6.484-2.393-7.919-4.996-.864-1.539-1.329-3.268-1.329-5.364 0-2.192.465-4.079 1.435-5.712C86.214 2.15 90.453 0 96.116 0c8.33 0 13.487 4.238 13.487 11.793v.717h-8.278v-.516c0-3.268-1.94-4.996-5.251-4.996-2.256 0-3.838.76-4.556 2.045-.359.558-.506 1.17-.506 1.886 0 .611.105 1.117.36 1.581.61 1.074 1.939 1.782 4.238 2.246l4.386.863c3.786.77 6.539 2.508 8.025 5.112.865 1.528 1.276 3.266 1.276 5.406 0 2.15-.464 4.09-1.382 5.723-2.14 3.625-6.38 5.712-12.052 5.712-8.32 0-13.434-4.29-13.434-11.846m40.161-10.432h17.66V22.1h-17.66v7.903h21.092v7.015h-28.817V.377h28.817v6.805H122.59v8.112M70.327 5.21c.21-.419.383-1.146.383-1.616V2.297c0-.47-.25-.572-.44-.572-.193 0-.43.06-.642.48L55.45 31.285l6.093-27.408.364-1.602c.103-.458-.195-.832-.665-.832h-.319c-.47 0-.94.374-1.044.832l-.433 2.642-5.812 26.315V2.297a.856.856 0 00-.853-.854h-.257a.856.856 0 00-.853.854v3.026l-.06 30.111c-.598 11.116-7.702 17.633-16.256 17.718-8.552-.085-15.655-6.57-16.253-17.686l-.061-30.143V2.297a.856.856 0 00-.855-.854h-.255a.857.857 0 00-.855.854v28.935l-5.81-27.048-.434-1.909c-.104-.458-.574-.832-1.044-.832H9.47c-.47 0-.77.374-.665.832l.363 1.602 6.168 27.473L1.084 2.205c-.212-.42-.45-.48-.642-.48S0 1.827 0 2.297v1.297c0 .47.174 1.197.385 1.616l16.589 33.76L.707 20.576C.39 20.23 0 20.45 0 20.919v.953c0 .47.26 1.135.58 1.481l17.274 19.49.8 2.79L.73 33.33c-.4-.242-.73-.056-.73.413v.602c0 .47.33 1.052.731 1.295l18.53 12.67.382 1.679L.827 43.654c-.455-.117-.827.17-.827.64v.333c0 .47.372.95.827 1.068l19.308 6.462.277 1.215H1.282c-.47 0-.804.3-.74.664.062.365.635 1.312 1.105 1.312H20.86l.53 2.338L3.825 61.82c-.457.109-.698.471-.536.808.162.337.991 1.115 1.448 1.008l17.092-4.023.923 4.061-12.12 7.283c-.285.163-.289.493-.009.737l.573.499c.28.244.738.31 1.024.147l10.993-6.634 1.095 4.822-5.426 5.84c-.255.272-.196.625.13.789l.67.333c.327.164.797.075 1.053-.197l4.105-4.425 1.28 5.693c.084.458.459.913.835 1.013l.77.205c.377.1.613-.189.527-.65l-1.785-8.026 4.6-4.997 3.33 6.607-2.73 5.417-.81 1.484c-.195.364-.062.706.297.763l.734.117c.36.056.807-.192 1.004-.557l.704-1.287.02.005.261-.518.134-.246h-.01l.12-.237.998-1.982.236-.47 1.236 2.452.12.237h-.012l.135.246.261.518.02-.005.705 1.287c.195.365.644.613 1.003.557l.734-.117c.359-.057.492-.399.297-.763l-.81-1.484-2.73-5.417 3.33-6.607 4.6 4.997-1.447 6.374c.005 0 .008-.002.013-.003l-.35 1.656c-.086.46.15.75.526.65l.77-.206c.377-.1.751-.555.836-1.013l.266-1.234 1.013-4.459.579.628 1.238 1.344 1.048 1.138-.023.01.662.684.105.114h.004l.493.507c.255.272.726.36 1.053.197l.669-.333c.327-.164.386-.517.13-.79l-5.426-5.839 1.095-4.822 9.522 5.784-.028.022.732.405.142.086.007-.004.619.341c.285.163.744.097 1.024-.147l.572-.499c.28-.244.276-.574-.01-.737L47.96 63.674l.921-4.06 17.093 4.022c.457.107 1.286-.671 1.449-1.008.162-.337-.08-.7-.537-.808L49.32 57.686l.53-2.338h19.215c.47 0 1.043-.947 1.105-1.312.062-.365-.27-.664-.74-.664H50.3l.276-1.215 19.308-6.462c.455-.118.826-.599.826-1.068v-.334c0-.469-.37-.756-.826-.639L51.07 49.99l.38-1.68 18.53-12.67c.403-.242.731-.825.731-1.294v-.602c0-.47-.328-.655-.73-.412L52.058 45.633l.808-2.985 17.266-19.295c.318-.346.578-1.012.578-1.481v-.953c0-.47-.388-.688-.706-.343L53.706 38.968 70.326 5.21zM38.9 57.265l2.669.628-.733 1.455-2.471-1.502.535-.581zm-7.089 0l.536.58-2.471 1.503-.733-1.455 2.668-.628zm-8.923-1.917h2.759l.603 1.195-2.934.691-.428-1.886zm1.645 7.244l-.78-3.431 3.41-.803 1.018 2.02-3.648 2.214zm1.402 6.17l-.94-4.138 4.078-2.478 1.045 2.074-4.183 4.541zm4.832-7.645l2.944-1.788.456.495-2.619 2.844-.781-1.551zm4.588 9.107l-2.857-5.671 2.857-3.103 2.858 3.103-2.858 5.67zm3.808-7.556l-2.62-2.844.457-.495 2.944 1.788-.78 1.55zm5.614 6.093l-4.184-4.541 1.046-2.074 4.077 2.478-.94 4.137zm1.401-6.17l-3.648-2.214 1.017-2.019 3.41.803-.779 3.43zm1.217-5.357l-2.933-.69.603-1.196h2.758l-.428 1.886zm111.69-25.097h.871v.532h.03c.242-.387.697-.63 1.18-.63.92 0 1.502.581 1.502 1.791v2.952h-.872v-2.904c0-.628-.339-1.016-.823-1.016-.629 0-1.017.388-1.017 1.162v2.758h-.87v-4.645m6.829 1.258c0-1.936 1.161-3.484 2.856-3.484 1.694 0 2.856 1.548 2.856 3.484 0 1.935-1.162 3.484-2.856 3.484-1.695 0-2.856-1.55-2.856-3.484m4.744 0c0-1.55-.824-2.565-1.888-2.565-1.065 0-1.889 1.016-1.889 2.565 0 1.548.824 2.564 1.889 2.564 1.064 0 1.888-1.016 1.888-2.564m2.085-2.807c0-.29.243-.533.533-.533.29 0 .532.243.532.533 0 .29-.242.533-.532.533a.538.538 0 01-.533-.533zm.098 6.194h.87v-4.645h-.87v4.645zm2.226-4.645h.872v.532h.03c.144-.243.551-.63 1.229-.63h.145v.92h-.29c-.678 0-1.114.493-1.114 1.258v2.565h-.872v-4.645m2.811 2.323c0-1.5.774-2.42 1.838-2.42.534 0 .97.193 1.28.677h.028v-2.71h.872v6.775h-.872v-.58h-.028c-.31.483-.746.677-1.28.677-1.064 0-1.838-.92-1.838-2.42m3.146 0c0-.968-.484-1.596-1.114-1.596-.677 0-1.16.676-1.16 1.596s.483 1.597 1.16 1.597c.63 0 1.114-.63 1.114-1.597m2.327-4.452h.872v2.661h.028c.243-.387.698-.628 1.181-.628.921 0 1.502.58 1.502 1.79v2.952h-.871v-2.903c0-.63-.34-1.018-.824-1.018-.63 0-1.016.388-1.016 1.162v2.759h-.872v-6.775m4.698 4.453c0-1.404.872-2.42 2.033-2.42 1.163 0 1.937 1.016 1.937 2.274 0 .242-.049.484-.049.484h-3.03c.077.726.562 1.258 1.239 1.258.726 0 1.163-.484 1.211-.58l.484.531a2.035 2.035 0 01-1.695.872c-1.288 0-2.13-1.065-2.13-2.42m3.09-.435c-.069-.736-.504-1.161-1.057-1.161-.561 0-.987.445-1.133 1.16h2.19m1.899-3.435c0-.29.242-.533.533-.533.29 0 .533.243.533.533 0 .29-.243.533-.533.533a.538.538 0 01-.533-.533zm.097 6.194h.872v-4.645h-.872v4.645zm1.937-.725l.58-.533c.194.29.485.533.873.533.435 0 .725-.243.725-.581 0-.388-.338-.533-.774-.726-.533-.243-1.211-.542-1.211-1.404 0-.678.485-1.307 1.356-1.307.63 0 1.113.29 1.404.63l-.57.513c-.098-.097-.302-.369-.737-.369-.34 0-.581.243-.581.533 0 .388.388.581.823.774.6.261 1.163.591 1.163 1.404 0 .774-.582 1.355-1.55 1.355-.92 0-1.452-.726-1.501-.822m3.924-1.597c0-1.404.87-2.42 2.032-2.42.97 0 1.501.725 1.647.968l-.63.483c-.096-.193-.436-.628-1.017-.628-.677 0-1.161.676-1.161 1.596 0 .987.503 1.597 1.16 1.597.631 0 1.018-.484 1.115-.63l.58.485c-.143.242-.725.968-1.694.968-1.161 0-2.032-1.017-2.032-2.42m4.6-3.871c0-.29.243-.533.533-.533.29 0 .533.243.533.533 0 .29-.243.533-.533.533a.538.538 0 01-.533-.533zm.097 6.194h.872v-4.645h-.872v4.645zm2.228-4.645h.871v.532h.03c.145-.243.553-.63 1.23-.63h.145v.92h-.29c-.679 0-1.115.493-1.115 1.258v2.565h-.87v-4.645m3.487 3.387V32.96h-.677v-.823h.386c.242 0 .388-.146.388-.436v-1.065h.774v1.5h.824v.824h-.824v2.516c0 .386.194.58.533.58a.97.97 0 00.435-.097v.823a2.158 2.158 0 01-.628.097c-.775 0-1.211-.435-1.211-1.355m-55-.088c0-.726.435-1.297 1.355-1.5l1.21-.271v-.146c0-.454-.29-.793-.775-.793-.581 0-.89.416-.987.562l-.562-.513c.097-.146.581-.871 1.598-.871.969 0 1.598.629 1.598 1.596v3.145h-.872v-.629h-.029a1.29 1.29 0 01-1.18.726c-.776 0-1.357-.531-1.357-1.306m2.566-.774v-.31l-1.016.251c-.436.107-.679.35-.679.736 0 .387.291.63.63.63.63 0 1.065-.533 1.065-1.307" fill="#FFF" fill-rule="evenodd"/></svg>